<svg width="44" height="44" viewBox="0 0 44 44" fill="none" xmlns="http://www.w3.org/2000/svg">
<path d="M22.0001 33.9167C22.0031 34.8778 21.7029 35.8154 21.1424 36.5962C20.5819 37.377 19.7895 37.9612 18.8778 38.2658C17.9662 38.5703 16.9818 38.5797 16.0645 38.2926C15.1472 38.0055 14.3438 37.4366 13.7684 36.6667H13.7501C13.044 36.6751 12.3457 36.518 11.7111 36.2082C11.0765 35.8983 10.5233 35.4442 10.0956 34.8823C9.66799 34.3203 9.37783 33.666 9.24838 32.9718C9.11892 32.2776 9.15375 31.5627 9.35009 30.8843C8.37692 30.5837 7.50716 30.017 6.839 29.2483C6.17085 28.4795 5.7309 27.5392 5.56884 26.5337C5.40677 25.5281 5.52904 24.4972 5.92183 23.5575C6.31463 22.6177 6.96231 21.8065 7.79176 21.2153C7.30027 20.2068 7.20069 19.0517 7.51231 17.9739C7.82393 16.8961 8.52456 15.9723 9.47843 15.3817C9.23278 14.7555 9.12931 14.0825 9.17548 13.4115C9.22166 12.7404 9.41633 12.088 9.74544 11.5014C10.0745 10.9148 10.5299 10.4086 11.0785 10.0194C11.6271 9.63019 12.2553 9.36775 12.9178 9.251C13.0421 8.58048 13.3144 7.94614 13.715 7.39424C14.1156 6.84234 14.6342 6.38677 15.2332 6.06076C15.8322 5.73475 16.4964 5.54651 17.1773 5.50976C17.8583 5.47301 18.5388 5.58868 19.1694 5.84833C20.0072 6.19507 20.7234 6.78253 21.2273 7.53638C21.7311 8.29023 22.0001 9.17659 22.0001 10.0833M22.0001 33.9167V10.0833M22.0001 33.9167C21.9971 34.8778 22.2972 35.8154 22.8578 36.5962C23.4183 37.377 24.2107 37.9612 25.1224 38.2658C26.034 38.5703 27.0184 38.5797 27.9357 38.2926C28.853 38.0055 29.6564 37.4366 30.2318 36.6667H30.2501C30.9567 36.6759 31.6556 36.5195 32.2909 36.2101C32.9262 35.9006 33.4802 35.4466 33.9084 34.8845C34.3367 34.3224 34.6273 33.6678 34.7571 32.9732C34.8868 32.2785 34.8521 31.5631 34.6556 30.8843C35.6284 30.5831 36.4976 30.0159 37.1652 29.2468C37.8327 28.4777 38.272 27.5374 38.4335 26.5319C38.595 25.5264 38.4722 24.4958 38.079 23.5563C37.6859 22.6169 37.038 21.8061 36.2084 21.2153C36.6997 20.2066 36.799 19.0513 36.4871 17.9735C36.1751 16.8957 35.4741 15.9721 34.5199 15.3817C34.7656 14.7556 34.8691 14.0828 34.823 13.4119C34.777 12.7409 34.5824 12.0886 34.2535 11.502C33.9246 10.9154 33.4695 10.4092 32.9211 10.0199C32.3727 9.63059 31.7447 9.36798 31.0824 9.251C30.8882 8.19899 30.332 7.24808 29.5103 6.56302C28.6886 5.87795 27.6532 5.5019 26.5834 5.5C25.3678 5.5 24.2021 5.98289 23.3425 6.84243C22.483 7.70197 22.0001 8.86776 22.0001 10.0833M7.33343 19.25C7.3334 18.4923 7.5212 17.7465 7.88003 17.0792C8.23887 16.4119 8.75753 15.8439 9.38962 15.4262C10.0217 15.0084 10.7475 14.7539 11.5021 14.6853C12.2566 14.6168 13.0164 14.7363 13.7134 15.0333M13.2001 30.7102C11.9553 31.2552 10.5528 31.3201 9.26302 30.8924C7.97322 30.4647 6.8874 29.5746 6.21491 28.3938C5.54241 27.213 5.33084 25.8251 5.62099 24.4976C5.91114 23.17 6.68246 21.9969 7.78626 21.2043M36.6668 19.25C36.6669 18.4921 36.4791 17.746 36.1202 17.0785C35.7613 16.4109 35.2424 15.8429 34.6101 15.425C33.9777 15.0072 33.2516 14.7528 32.4968 14.6844C31.742 14.616 30.982 14.7359 30.2849 15.0333M30.7983 30.7102C32.0432 31.2566 33.4465 31.3226 34.7372 30.8954C36.028 30.4681 37.1147 29.578 37.7878 28.3966C38.4608 27.2153 38.6724 25.8265 38.3818 24.4983C38.0911 23.1701 37.3188 21.9966 36.2139 21.2043" stroke="#6BCB77" stroke-width="3" stroke-linecap="round" stroke-linejoin="round"/>
</svg>
